<svg xmlns="http://www.w3.org/2000/svg" width="351" height="74" fill="none" viewBox="0 0 351 74">
  <path fill="#000" d="M267.88 66h-6.5l-1.24 3h-3.32l6.24-14h3.2l6.26 14h-3.4l-1.24-3Zm-1.02-2.46-2.22-5.36-2.22 5.36h4.44Zm17.755-9.38V69h-2.98v-1.24c-.773.933-1.893 1.4-3.36 1.4-1.013 0-1.933-.227-2.76-.68a4.891 4.891 0 0 1-1.92-1.94c-.467-.84-.7-1.813-.7-2.92s.233-2.08.7-2.92a4.891 4.891 0 0 1 1.92-1.94c.827-.453 1.747-.68 2.76-.68 1.373 0 2.447.433 3.22 1.3v-5.22h3.12Zm-5.8 12.44c.787 0 1.44-.267 1.96-.8.52-.547.78-1.273.78-2.18 0-.907-.26-1.627-.78-2.16-.52-.547-1.173-.82-1.96-.82-.8 0-1.46.273-1.98.82-.52.533-.78 1.253-.78 2.16 0 .907.26 1.633.78 2.18.52.533 1.18.8 1.98.8Zm22.468-8.52c1.346 0 2.413.4 3.2 1.2.8.787 1.2 1.973 1.2 3.56V69h-3.12v-5.68c0-.853-.18-1.487-.54-1.9-.347-.427-.847-.64-1.5-.64-.734 0-1.314.24-1.74.72-.427.467-.64 1.167-.64 2.1V69h-3.12v-5.68c0-1.693-.68-2.54-2.04-2.54-.72 0-1.294.24-1.72.72-.427.467-.64 1.167-.64 2.1V69h-3.12V58.24h2.98v1.24c.4-.453.886-.8 1.459-1.04a5.027 5.027 0 0 1 1.921-.36c.76 0 1.446.153 2.06.46a3.583 3.583 0 0 1 1.48 1.3 4.43 4.43 0 0 1 1.66-1.3c.68-.307 1.42-.46 2.22-.46Zm7.196.16h3.12V69h-3.12V58.24Zm1.56-1.5c-.573 0-1.04-.167-1.4-.5a1.622 1.622 0 0 1-.54-1.24c0-.493.18-.907.54-1.24.36-.333.827-.5 1.4-.5s1.04.16 1.4.48c.36.32.54.72.54 1.2 0 .52-.18.953-.54 1.3-.36.333-.827.5-1.4.5Zm10.996 1.34c1.333 0 2.406.4 3.22 1.2.826.8 1.24 1.987 1.24 3.56V69h-3.12v-5.68c0-.853-.187-1.487-.56-1.9-.374-.427-.914-.64-1.62-.64-.787 0-1.414.247-1.88.74-.467.48-.7 1.2-.7 2.16V69h-3.12V58.24h2.98v1.26c.413-.453.926-.8 1.54-1.04a5.238 5.238 0 0 1 2.02-.38ZM96.6 48.4c-2.867 0-5.45-.583-7.75-1.75-2.267-1.2-4.05-2.85-5.35-4.95-1.267-2.1-1.9-4.483-1.9-7.15 0-2.667.633-5.05 1.9-7.15 1.3-2.1 3.083-3.733 5.35-4.9 2.3-1.2 4.883-1.8 7.75-1.8 2.833 0 5.3.6 7.4 1.8 2.133 1.167 3.683 2.85 4.65 5.05l-6.05 3.25c-1.4-2.467-3.417-3.7-6.05-3.7-2.033 0-3.717.667-5.05 2-1.333 1.333-2 3.15-2 5.45 0 2.3.667 4.117 2 5.45 1.333 1.333 3.017 2 5.05 2 2.667 0 4.683-1.233 6.05-3.7l6.05 3.3c-.967 2.133-2.517 3.8-4.65 5-2.1 1.2-4.567 1.8-7.4 1.8Zm32.696-27.7c3.333 0 6.016 1 8.05 3 2.066 2 3.1 4.967 3.1 8.9V48h-7.8V33.8c0-2.133-.467-3.717-1.4-4.75-.934-1.067-2.284-1.6-4.05-1.6-1.967 0-3.534.617-4.7 1.85-1.167 1.2-1.75 3-1.75 5.4V48h-7.8V10.9h7.8v13c1.033-1.033 2.283-1.817 3.75-2.35 1.466-.567 3.066-.85 4.8-.85Zm44.863 13.95c0 .1-.05.8-.15 2.1h-20.35c.367 1.667 1.233 2.983 2.6 3.95 1.367.967 3.067 1.45 5.1 1.45 1.4 0 2.633-.2 3.7-.6 1.1-.433 2.117-1.1 3.05-2l4.15 4.5c-2.533 2.9-6.233 4.35-11.1 4.35-3.033 0-5.717-.583-8.05-1.75-2.333-1.2-4.133-2.85-5.4-4.95-1.267-2.1-1.9-4.483-1.9-7.15 0-2.633.617-5 1.85-7.1 1.267-2.133 2.983-3.783 5.15-4.95 2.2-1.2 4.65-1.8 7.35-1.8 2.633 0 5.017.567 7.15 1.7s3.8 2.767 5 4.9c1.233 2.1 1.85 4.55 1.85 7.35Zm-13.95-8.05c-1.767 0-3.25.5-4.45 1.5-1.2 1-1.933 2.367-2.2 4.1h13.25c-.267-1.7-1-3.05-2.2-4.05-1.2-1.033-2.667-1.55-4.4-1.55Zm32.143 21.8c-2.867 0-5.45-.583-7.75-1.75-2.267-1.2-4.05-2.85-5.35-4.95-1.267-2.1-1.9-4.483-1.9-7.15 0-2.667.633-5.05 1.9-7.15 1.3-2.1 3.083-3.733 5.35-4.9 2.3-1.2 4.883-1.8 7.75-1.8 2.833 0 5.3.6 7.4 1.8 2.133 1.167 3.683 2.85 4.65 5.05l-6.05 3.25c-1.4-2.467-3.417-3.7-6.05-3.7-2.033 0-3.717.667-5.05 2-1.333 1.333-2 3.15-2 5.45 0 2.3.667 4.117 2 5.45 1.333 1.333 3.017 2 5.05 2 2.667 0 4.683-1.233 6.05-3.7l6.05 3.3c-.967 2.133-2.517 3.8-4.65 5-2.1 1.2-4.567 1.8-7.4 1.8Zm27.896-10.95-3.75 3.7V48h-7.8V10.9h7.8v21l11.4-10.8h9.3l-11.2 11.4 12.2 15.5h-9.45l-8.5-10.55Zm45.057 3.05h-16.25l-3.1 7.5h-8.3l15.6-35h8l15.65 35h-8.5l-3.1-7.5Zm-2.55-6.15-5.55-13.4-5.55 13.4h11.1ZM295.687 13c3.1 0 5.783.517 8.05 1.55 2.3 1.033 4.066 2.5 5.3 4.4 1.233 1.9 1.85 4.15 1.85 6.75 0 2.567-.617 4.817-1.85 6.75-1.234 1.9-3 3.367-5.3 4.4-2.267 1-4.95 1.5-8.05 1.5h-7.05V48h-8.1V13h15.15Zm-.45 18.75c2.433 0 4.283-.517 5.55-1.55 1.266-1.067 1.9-2.567 1.9-4.5 0-1.967-.634-3.467-1.9-4.5-1.267-1.067-3.117-1.6-5.55-1.6h-6.6v12.15h6.6ZM316.67 13h8.1v35h-8.1V13Z"/>
  <path fill="#FFA16C" d="M0 .845h59.155V60H0z"/>
  <path fill="#FF7E36" d="M16.268 19.526h42.887V60H16.268z"/>
  <path fill="#FF5C00" d="M37.711 39.643h21.444V60H37.711z"/>
</svg>
